<svg xmlns="http://www.w3.org/2000/svg" xmlns:xlink="http://www.w3.org/1999/xlink" viewBox="0 0 877 332" width="877pt" height="332pt">
<g class="graph" id="graph1" transform="scale(1) rotate(0) translate(4 328)">
<title>chess</title>
<polygon fill="white" stroke="white" points="-4,5 -4,-328 874,-328 874,5 -4,5" />
<!-- Chaturanga -->
<g class="node" id="node1"><title>Chaturanga</title>
<a xlink:href="chaturanga.htm">
<ellipse fill="green" stroke="black" cx="254" cy="-306" rx="55.3236" ry="18" />
<text font-family="Times,serif" font-size="14" text-anchor="middle" x="254" y="-301.8">Chaturanga</text>
</a>
</g>
<!-- Makruk -->
<g class="node" id="node2"><title>Makruk</title>
<a xlink:href="makruk.htm">
<ellipse fill="green" stroke="black" cx="125" cy="-234" rx="41.4107" ry="18" />
<text font-family="Times,serif" font-size="14" text-anchor="middle" x="125" y="-229.8">Makruk</text>
</a>
</g>
<!-- Chaturanga&#45;&gt;Makruk -->
<g class="edge" id="edge4"><title>Chaturanga-&gt;Makruk</title>
<path fill="none" stroke="black" d="M 226.642 -290.155 C 206.928 -279.457 180.192 -264.949 159.089 -253.498" />
<polygon fill="black" stroke="black" points="160.589,-250.33 150.131,-248.637 157.251,-256.483 160.589,-250.33" />
</g>
<!-- Shatranj -->
<g class="node" id="node3"><title>Shatranj</title>
<a xlink:href="shatranj.htm">
<ellipse fill="lightgreen" stroke="black" cx="383" cy="-234" rx="43.3265" ry="18" />
<text font-family="Times,serif" font-size="14" text-anchor="middle" x="383" y="-229.8">Shatranj</text>
</a>
</g>
<!-- Chaturanga&#45;&gt;Shatranj -->
<g class="edge" id="edge2"><title>Chaturanga-&gt;Shatranj</title>
<path fill="none" stroke="black" d="M 281.358 -290.155 C 301.072 -279.457 327.808 -264.949 348.911 -253.498" />
<polygon fill="black" stroke="black" points="350.749,-256.483 357.869,-248.637 347.411,-250.33 350.749,-256.483" />
</g>
<!-- Sittuyin -->
<g class="node" id="node4"><title>Sittuyin</title>
<a xlink:href="sittuyin.htm">
<ellipse fill="green" stroke="black" cx="41" cy="-162" rx="41.4368" ry="18" />
<text font-family="Times,serif" font-size="14" text-anchor="middle" x="41" y="-157.8">Sittuyin</text>
</a>
</g>
<!-- Makruk&#45;&gt;Sittuyin -->
<g class="edge" id="edge6"><title>Makruk-&gt;Sittuyin</title>
<path fill="none" stroke="black" d="M 106.773 -217.811 C 95.2945 -208.245 80.2833 -195.736 67.5003 -185.084" />
<polygon fill="black" stroke="black" points="69.4041,-182.114 59.4813,-178.401 64.9228,-187.492 69.4041,-182.114" />
</g>
<!-- Xiangqi -->
<g class="node" id="node6"><title>Xiangqi</title>
<a xlink:href="../xiangqi/xiangqi.htm">
<ellipse fill="yellow" stroke="black" cx="245" cy="-162" rx="42.2212" ry="18" />
<text font-family="Times,serif" font-size="14" text-anchor="middle" x="245" y="-157.8">Xiangqi</text>
</a>
</g>
<!-- Makruk&#45;&gt;Xiangqi -->
<g class="edge" id="edge8"><title>Makruk-&gt;Xiangqi</title>
<path fill="none" stroke="black" stroke-dasharray="1,5" d="M 148.708 -219.17 C 166.833 -208.597 192.036 -193.896 212.111 -182.185" />
<polygon fill="black" stroke="black" points="214.056,-185.103 220.93,-177.041 210.529,-179.056 214.056,-185.103" />
</g>
<!-- Shogi -->
<g class="node" id="node7"><title>Shogi</title>
<ellipse fill="red" stroke="black" cx="134" cy="-162" rx="33.3604" ry="18" />
<text font-family="Times,serif" font-size="14" text-anchor="middle" x="134" y="-157.8">Shogi</text>
</g>
<!-- Makruk&#45;&gt;Shogi -->
<g class="edge" id="edge12"><title>Makruk-&gt;Shogi</title>
<path fill="none" stroke="black" stroke-dasharray="1,5" d="M 127.225 -215.697 C 128.217 -207.983 129.408 -198.712 130.514 -190.112" />
<polygon fill="black" stroke="black" points="133.997,-190.469 131.801,-180.104 127.054,-189.576 133.997,-190.469" />
</g>
<!-- Courier chess -->
<g class="node" id="node8"><title>Courier chess</title>
<a xlink:href="courier-chess-variant.htm">
<ellipse fill="lightblue" stroke="black" cx="383" cy="-162" rx="63.2927" ry="18" />
<text font-family="Times,serif" font-size="14" text-anchor="middle" x="383" y="-157.8">Courier chess</text>
</a>
</g>
<!-- Shatranj&#45;&gt;Courier chess -->
<g class="edge" id="edge14"><title>Shatranj-&gt;Courier chess</title>
<path fill="none" stroke="black" d="M 383 -215.697 C 383 -207.983 383 -198.712 383 -190.112" />
<polygon fill="black" stroke="black" points="386.5,-190.104 383,-180.104 379.5,-190.104 386.5,-190.104" />
</g>
<!-- Qiguo Xiangqi -->
<g class="node" id="node5"><title>Qiguo Xiangqi</title>
<a xlink:href="../xiangqi/qiquo-xiangqi.htm">
<ellipse fill="yellow" stroke="black" cx="253" cy="-234" rx="68.5525" ry="18" />
<text font-family="Times,serif" font-size="14" text-anchor="middle" x="253" y="-229.8">Qiguo Xiangqi</text>
</a>
</g>
<!-- Qiguo Xiangqi&#45;&gt;Xiangqi -->
<g class="edge" id="edge10"><title>Qiguo Xiangqi-&gt;Xiangqi</title>
<path fill="none" stroke="black" stroke-dasharray="1,5" d="M 251.022 -215.697 C 250.141 -207.983 249.081 -198.712 248.099 -190.112" />
<polygon fill="black" stroke="black" points="251.568,-189.642 246.955,-180.104 244.613,-190.437 251.568,-189.642" />
</g>
<!-- Gala -->
<g class="node" id="node9"><title>Gala</title>
<a xlink:href="../control/gala.htm">
<ellipse fill="lightblue" stroke="black" cx="270" cy="-90" rx="28.9004" ry="18" />
<text font-family="Times,serif" font-size="14" text-anchor="middle" x="270" y="-85.8">Gala</text>
</a>
</g>
<!-- Courier chess&#45;&gt;Gala -->
<g class="edge" id="edge16"><title>Courier chess-&gt;Gala</title>
<path fill="none" stroke="black" stroke-dasharray="1,5" d="M 357.922 -145.465 C 340.264 -134.527 316.604 -119.87 298.275 -108.516" />
<polygon fill="black" stroke="black" points="300.1,-105.529 289.756,-103.238 296.414,-111.48 300.1,-105.529" />
</g>
<!-- Rithmomachy -->
<g class="node" id="node10"><title>Rithmomachy</title>
<ellipse fill="lightblue" stroke="black" cx="383" cy="-90" rx="65.1358" ry="18" />
<text font-family="Times,serif" font-size="14" text-anchor="middle" x="383" y="-85.8">Rithmomachy</text>
</g>
<!-- Courier chess&#45;&gt;Rithmomachy -->
<g class="edge" id="edge18"><title>Courier chess-&gt;Rithmomachy</title>
<path fill="none" stroke="black" stroke-dasharray="1,5" d="M 383 -143.697 C 383 -135.983 383 -126.712 383 -118.112" />
<polygon fill="black" stroke="black" points="386.5,-118.104 383,-108.104 379.5,-118.104 386.5,-118.104" />
</g>
<!-- Chess -->
<g class="node" id="node11"><title>Chess</title>
<a xlink:href="chess.htm">
<ellipse fill="lightblue" stroke="black" cx="501" cy="-90" rx="34.1548" ry="18" />
<text font-family="Times,serif" font-size="14" text-anchor="middle" x="501" y="-85.8">Chess</text>
</a>
</g>
<!-- Courier chess&#45;&gt;Chess -->
<g class="edge" id="edge20"><title>Courier chess-&gt;Chess</title>
<path fill="none" stroke="black" d="M 409.188 -145.465 C 427.276 -134.734 451.398 -120.425 470.377 -109.166" />
<polygon fill="black" stroke="black" points="472.418,-112.025 479.232,-103.913 468.846,-106.005 472.418,-112.025" />
</g>
<!-- Mini Chess -->
<g class="node" id="node12"><title>Mini Chess</title>
<a xlink:href="mini-chess.htm">
<ellipse fill="none" stroke="black" cx="184" cy="-18" rx="54.9471" ry="18" />
<text font-family="Times,serif" font-size="14" text-anchor="middle" x="184" y="-13.8">Mini Chess</text>
</a>
</g>
<!-- Chess&#45;&gt;Mini Chess -->
<g class="edge" id="edge22"><title>Chess-&gt;Mini Chess</title>
<path fill="none" stroke="black" d="M 475.229 -78.0642 C 469.314 -75.8297 462.999 -73.6579 457 -72 C 366.149 -46.8919 340.085 -56.1189 248 -36 C 243.585 -35.0353 239.016 -33.966 234.446 -32.847" />
<polygon fill="black" stroke="black" points="235.048,-29.3893 224.495,-30.3391 233.337,-36.177 235.048,-29.3893" />
</g>
<!-- Dunsany&#39;s Chess -->
<g class="node" id="node13"><title>Dunsany's Chess</title>
<a xlink:href="dunsanys-chess.htm">
<ellipse fill="none" stroke="black" cx="335" cy="-18" rx="77.2243" ry="18" />
<text font-family="Times,serif" font-size="14" text-anchor="middle" x="335" y="-13.8">Dunsany's Chess</text>
</a>
</g>
<!-- Chess&#45;&gt;Dunsany&#39;s Chess -->
<g class="edge" id="edge24"><title>Chess-&gt;Dunsany's Chess</title>
<path fill="none" stroke="black" d="M 475.063 -78.0625 C 449.72 -67.3758 410.621 -50.8882 380.167 -38.0462" />
<polygon fill="black" stroke="black" points="381.185,-34.6774 370.611,-34.0168 378.465,-41.1273 381.185,-34.6774" />
</g>
<!-- Platform Chess -->
<g class="node" id="node14"><title>Platform Chess</title>
<a xlink:href="platform-chess.htm">
<ellipse fill="none" stroke="black" cx="501" cy="-18" rx="69.9657" ry="18" />
<text font-family="Times,serif" font-size="14" text-anchor="middle" x="501" y="-13.8">Platform Chess</text>
</a>
</g>
<!-- Chess&#45;&gt;Platform Chess -->
<g class="edge" id="edge26"><title>Chess-&gt;Platform Chess</title>
<path fill="none" stroke="black" d="M 501 -71.6966 C 501 -63.9827 501 -54.7125 501 -46.1124" />
<polygon fill="black" stroke="black" points="504.5,-46.1043 501,-36.1043 497.5,-46.1044 504.5,-46.1043" />
</g>
<!-- Maharadja -->
<g class="node" id="node15"><title>Maharadja</title>
<a xlink:href="../elimination/maharadja.htm">
<ellipse fill="none" stroke="black" cx="642" cy="-18" rx="51.9854" ry="18" />
<text font-family="Times,serif" font-size="14" text-anchor="middle" x="642" y="-13.8">Maharadja</text>
</a>
</g>
<!-- Chess&#45;&gt;Maharadja -->
<g class="edge" id="edge28"><title>Chess-&gt;Maharadja</title>
<path fill="none" stroke="black" d="M 524.919 -77.1255 C 546.656 -66.3341 579.086 -50.2338 604.307 -37.7127" />
<polygon fill="black" stroke="black" points="606.183,-40.6893 613.583,-33.1076 603.07,-34.4195 606.183,-40.6893" />
</g>
<!-- Belarusian Chess -->
<g class="node" id="node17"><title>Belarusian Chess</title>
<a xlink:href="belarusian-chess.htm">
<ellipse fill="none" stroke="black" cx="790" cy="-18" rx="77.22" ry="18" />
<text font-family="Times,serif" font-size="14" text-anchor="middle" x="790" y="-13.8">Belarusian Chess</text>
</a>
</g>
<!-- Chess&#45;&gt;Belarusian Chess -->
<g class="edge" id="edge32"><title>Chess-&gt;Belarusian Chess</title>
<path fill="none" stroke="black" d="M 531.382 -81.6411 C 577.988 -70.3524 668.079 -48.531 728.64 -33.8622" />
<polygon fill="black" stroke="black" points="729.572,-37.2378 738.467,-31.482 727.924,-30.4345 729.572,-37.2378" />
</g>
<!-- Russian Checkers -->
<g class="node" id="node16"><title>Russian Checkers</title>
<a xlink:href="../checkers/russian-checkers.htm">
<ellipse fill="lightblue" stroke="black" cx="790" cy="-90" rx="79.436" ry="18" />
<text font-family="Times,serif" font-size="14" text-anchor="middle" x="790" y="-85.8">Russian Checkers</text>
</a>
</g>
<!-- Russian Checkers&#45;&gt;Belarusian Chess -->
<g class="edge" id="edge30"><title>Russian Checkers-&gt;Belarusian Chess</title>
<path fill="none" stroke="black" d="M 790 -71.6966 C 790 -63.9827 790 -54.7125 790 -46.1124" />
<polygon fill="black" stroke="black" points="793.5,-46.1043 790,-36.1043 786.5,-46.1044 793.5,-46.1043" />
</g>
</g>
</svg>